<svg id="Capa_1" data-name="Capa 1" xmlns="http://www.w3.org/2000/svg" viewBox="0 0 500 500"><defs><style>.cls-1{fill:#ef3f4e;}.cls-2{fill:#626365;}.cls-3{fill:#fff;}.cls-4{fill:#636466;}</style></defs><title>Mesa de trabajo 1</title><path class="cls-1" d="M293,136.29c-1.17,5.09-2.39,10.17-3.49,15.28a12.5,12.5,0,0,1-15.17,9.52c-2.36-.59-4.8-.88-7-2a12.33,12.33,0,0,1-6.39-13.12c.95-4.53,2-9.05,3.11-13.53,1.58-6.28,8.15-10.07,14.85-8.67,2.26.47,4.52,1,6.76,1.56.84.2,1.16,0,1.39-.87,2.44-8.82,2-17.41-2.41-25.53C280,90.33,273,84.62,263.47,82.34c-12.18-2.91-22.72.31-31.58,9a29.82,29.82,0,0,0-8.33,15c-.23,1-.49,2.06-.71,3.1-.27,1.32-.27,1.34,1.13,1.66,2.12.51,4.26.95,6.37,1.48a12.47,12.47,0,0,1,9.09,8.05,11.64,11.64,0,0,1,.44,6.81c-.91,4.13-1.83,8.26-2.84,12.38a12.42,12.42,0,0,1-14.79,9.31c-1.42-.31-2.84-.64-4.26-1a12.41,12.41,0,0,1-9.39-14.93c2.1-9.76,4.09-19.57,6.74-29.19,4.27-15.52,14.3-25.66,29.95-29.95a38.93,38.93,0,0,1,16.26-.82,41.35,41.35,0,0,1,35.22,44.77c-.4,4.57-1.76,8.93-2.68,13.39C293.75,133.07,293.35,134.67,293,136.29Z"/><path class="cls-1" d="M107.33,290.11h10.19V327.9h22.59v8.57H107.33Z"/><path class="cls-1" d="M158.48,290.11h10.45l17.34,46.36H175.69l-3.51-10.32H154.85l-3.64,10.32H140.89Zm-1,28.44h12l-5.84-17h-.13Z"/><path class="cls-1" d="M190.29,290.11h25c8.31,0,13.57,5.78,13.57,12.79,0,5.46-2.2,9.55-7.33,11.62v.13c5,1.3,6.42,6.17,6.75,10.85.19,2.92.13,8.37,1.95,11H220c-1.23-2.92-1.1-7.4-1.62-11.1-.71-4.87-2.6-7-7.73-7H200.48v18.12H190.29Zm10.19,21h11.17c4.54,0,7-1.94,7-6.62,0-4.48-2.47-6.43-7-6.43H200.48Z"/><path class="cls-1" d="M237.16,290.11h34.66v8.57H247.35v9.94h22.46v7.92H247.35V327.9h25v8.57H237.16Z"/><path class="cls-1" d="M289.48,298.68H275.59v-8.57h38v8.57h-13.9v37.79H289.48Z"/><path class="cls-1" d="M326.74,290.11h10.45l17.34,46.36H344l-3.51-10.32H323.11l-3.64,10.32H309.15Zm-1,28.44h12l-5.84-17h-.13Z"/><path class="cls-1" d="M365.5,321.08c0,6.17,4.8,8.57,10.25,8.57,3.57,0,9-1,9-5.78,0-5-6.95-5.84-13.77-7.66s-13.82-4.48-13.82-13.18c0-9.48,8.95-14,17.33-14,9.67,0,18.57,4.22,18.57,14.93h-9.87c-.33-5.58-4.29-7-9.15-7-3.25,0-7,1.36-7,5.26,0,3.57,2.21,4,13.83,7,3.38.84,13.77,3,13.77,13.5,0,8.51-6.69,14.87-19.29,14.87-10.25,0-19.86-5.06-19.73-16.49Z"/><path class="cls-2" d="M163.19,417.92a25.56,25.56,0,0,1-20.73,10.37c-23.39,0-37.14-17.46-37.14-39.26,0-22.43,13.75-39.89,37.14-39.89,15.44,0,30,9.52,31.84,26.66H158.43c-1.9-8.35-8.14-12.69-16-12.69-14.92,0-20.53,12.69-20.53,25.92,0,12.59,5.61,25.29,20.53,25.29,10.79,0,17-5.82,18-16.3H143.72V385.65h31.75v40.84H164.89Z"/><path class="cls-2" d="M188.9,350.94h56.5v14H205.51v16.18h36.61V394H205.51v18.51h40.74v14H188.9Z"/><path class="cls-2" d="M257.46,350.94H314v14H274.07v16.18h36.61V394H274.07v18.51H314.8v14H257.46Z"/><path class="cls-2" d="M326,350.94h16.62v31.32l29.52-31.32h20.74l-29.52,29.84,32.37,45.71H374.9l-22.75-34-9.52,9.63v24.34H326Z"/><path class="cls-3" d="M209.78,183.07a112.38,112.38,0,0,1,5.13-19.41c6.27,4.46,22.3,15.39,29.59,15.89,6.88.47,23.72-8.11,29.11-11,2.48,10.06,5.1,18.35,7.72,22.77,12,20.34,18.53,70,17.47,74.8-3.65-.55-70.39-.6-75-.24l-1,.22C217.83,264.18,203.74,221.73,209.78,183.07Z"/><path class="cls-4" d="M219,271a6,6,0,0,0,5.8,1c7.48-.92,25.33-27.4,31-28.82,7.55-1.87,35.63,25.47,40.26,26.11a6.68,6.68,0,0,0,2.54-.11A5.2,5.2,0,0,0,301.8,267c5.9-8.88-10.79-71.29-15.19-78.72-10.14-17.12-21.18-102.29-21.29-103.15l-.06-.35A4.53,4.53,0,0,0,260.58,81c-8.84.43-27,30.53-30.52,36.57-6.65,11.3-22.54,40.22-26.35,64.55C198.07,218.25,209.22,264,219,271Zm-9.22-87.89a112.38,112.38,0,0,1,5.13-19.41c6.27,4.46,22.3,15.39,29.59,15.89,6.88.47,23.72-8.11,29.11-11,2.48,10.06,5.1,18.35,7.72,22.77,12,20.34,16.53,67,15.47,71.8-3.65-.55-32.71-28.37-42.43-26-8.19,2-26,28.36-30.6,28.72l-1,.22C217.83,264.18,203.74,221.73,209.78,183.07Z"/><ellipse class="cls-1" cx="244.27" cy="168.13" rx="15.36" ry="22.52" transform="translate(22.89 365.42) rotate(-76.25)"/><ellipse class="cls-3" cx="249.8" cy="161.46" rx="4.1" ry="6.83" transform="translate(33.59 365.72) rotate(-76.25)"/><rect class="cls-4" x="107.33" y="265.01" width="285.79" height="9.06"/><path class="cls-4" d="M364.27,266.94V251.31c0-12.45-12.61-22.54-28.16-22.54H163.46c-17.41,0-31.41,11.47-31,25.41l.29,12.56"/><path class="cls-1" d="M228.61,196.09a.15.15,0,0,0-.12.17A.15.15,0,0,0,228.61,196.09Z"/><path class="cls-1" d="M228.43,196.36a.17.17,0,0,0-.13.18A.15.15,0,0,0,228.43,196.36Z"/><path class="cls-1" d="M228.3,196.54c-.1,0-.14.07-.14.17A.16.16,0,0,0,228.3,196.54Z"/><path class="cls-1" d="M253.15,194.79l-28.07.55a2.09,2.09,0,0,0-2,2.64l6.55,27a1.36,1.36,0,0,0,1.32,1h17.4a1.35,1.35,0,0,0,1.33-1.09l5.5-27.48A2.09,2.09,0,0,0,253.15,194.79Z"/><path class="cls-1" d="M217.28,212.77c2.39,5.19,7.66,7.86,11.75,6s5.48-7.63,3.09-12.81-7.66-7.86-11.76-6S214.89,207.59,217.28,212.77Zm5.51-10.22c3-1.37,6.78.57,8.51,4.32s.73,7.91-2.23,9.28-6.78-.56-8.51-4.32S219.82,203.92,222.79,202.55Z"/><path class="cls-1" d="M285.64,125.29c.84.2,1.16,0,1.39-.87,2.44-8.82,2-17.41-2.41-25.53C280,90.33,273,84.62,263.47,82.34c-12.18-2.91-22.72.31-31.58,9a29.82,29.82,0,0,0-8.33,15c-.23,1-.49,2.06-.71,3.1-.27,1.32-.27,1.34,1.13,1.66,2.12.51,4.26.95,6.37,1.48a12.47,12.47,0,0,1,9.09,8.05,11.64,11.64,0,0,1,.44,6.81c-.91,4.13-1.83,8.26-2.84,12.38a12.42,12.42,0,0,1-14.79,9.31c-1.42-.31-2.84-.64-4.26-1a12.41,12.41,0,0,1-9.39-14.93c2.1-9.76,4.09-19.57,6.74-29.19,4.27-15.52,14.3-25.66,29.95-29.95a38.93,38.93,0,0,1,16.26-.82,41.35,41.35,0,0,1,35.22,44.77c-.4,4.57-1.76,8.93-2.68,13.39-.34,1.62-.74,3.22-1.11,4.84-1.17,5.09-2.39,10.17-3.49,15.28"/><path class="cls-4" d="M279.93,174.38s9,13.62,13.73,18.69c5.76,6.15,11.46,15.68,12.88,20.44s1.78,4.87,3.42,6.93c3.37,4.24,10.09.29,12.34,2.72,2.52,2.71-1.79,5.5-4.5,5.75a57.36,57.36,0,0,1-7.65-.19s-5.31,2.26-6.26-.91S298.75,210.7,295,204.7c-2.46-3.9-8.94-14-8.94-14Z"/><path class="cls-1" d="M323.12,231.18c-3,0-6,0-9,0a2.13,2.13,0,0,1-2-1.19,2.18,2.18,0,0,1,.11-2.35,2.08,2.08,0,0,1,1.9-1c1.87,0,3.74,0,5.61,0h.75a.36.36,0,0,0,.39-.41c0-1.22,0-2.44,0-3.66,0-.52-.38-.55-.73-.59a13.58,13.58,0,0,1-3.32-.89,17.77,17.77,0,0,1-11.46-13.73,14.35,14.35,0,0,1-.24-3c0-1.58,0-3.16,0-4.74a2.24,2.24,0,0,1,2.28-2.23,2.21,2.21,0,0,1,2.25,2.25c0,1.69,0,3.38.05,5.06a13.42,13.42,0,0,0,26.69,1.43,25.06,25.06,0,0,0,.21-3c0-1.15.06-2.3,0-3.45a2.26,2.26,0,0,1,4.51-.31c.06,3.83.35,7.69-1.18,11.37a17.78,17.78,0,0,1-13.59,11.19c-.93.2-.94.17-.94,1.16,0,.8,0,1.59,0,2.38,0,1.32-.08,1.17,1.14,1.18,1.83,0,3.67,0,5.5,0a2.12,2.12,0,0,1,2.24,1.49,2.3,2.3,0,0,1-.76,2.6,2.09,2.09,0,0,1-1.5.44Z"/><path class="cls-1" d="M333.42,194.49c0,3.4,0,6.81,0,10.21a10.06,10.06,0,0,1-7.69,9.84,10.17,10.17,0,0,1-12.59-8.4,17.76,17.76,0,0,1-.15-2.3c0-6.44,0-12.88,0-19.32a10.21,10.21,0,0,1,20.42-.24C333.44,187.68,333.42,191.09,333.42,194.49Z"/><path class="cls-4" d="M208.78,163.62s-21.89,35.22-22.31,53.74c-.11,5,24.84-4.13,25.64-3.3s.56,3.8,1.58,4.36c2.28,1.25,9.21.86,10.76-.93.68-.79.49-4-.52-3.69-1.87.48-1.6-.2-1.6-.2s.17.3,2.2-.6c.67-.29.44-4-.29-3.92-2.73.38-2.7.12-2.7.12a25.78,25.78,0,0,0,2.66-.95c1-.38.28-2.58-.5-3.28-1.08-1-5.5.26-5.5.26s4.15-.47,1.47-3.45c-1.59-1.77-6.59,1.87-7.85,4.07-.4.69-.48,3.83-1.16,4.24-2.8,1.67-16.9,3.78-16.23,2.1,3.18-8.11,10.43-27,12.15-29.27,2.07-2.78,4.29-8,4.25-11.85A14.42,14.42,0,0,0,208.78,163.62Z"/></svg>