<?xml version="1.0" encoding="utf-8"?>
<!-- Generator: Adobe Illustrator 22.0.1, SVG Export Plug-In . SVG Version: 6.00 Build 0)  -->
<svg version="1.1" id="Capa_1" xmlns="http://www.w3.org/2000/svg" xmlns:xlink="http://www.w3.org/1999/xlink" x="0px" y="0px"
	 viewBox="0 0 500 350" style="enable-background:new 0 0 500 350;" xml:space="preserve">
<style type="text/css">
	.st0{fill:#EF3F4E;}
	.st1{fill:#626365;}
	.st2{fill:#ED3241;}
	.st3{fill:#636466;}
	.st4{fill:#CCCCCC;}
	.st5{fill:#FFFFFF;}
	.st6{fill:#EE3342;}
</style>
<g>
	<g>
		<path class="st0" d="M79.8,292.1H62.1l-18.6-59.1h16L71.2,277h0.2l11.6-43.9h16L79.8,292.1z"/>
		<path class="st0" d="M109,233.1h15.4v59.1H109V233.1z"/>
		<path class="st0" d="M195.3,292.1h-9.9l-0.9-6.5c-4.1,5.7-11,7.7-16.5,7.7c-17.9,0-29.5-13.6-29.5-30.8
			c0-17.1,11.6-30.8,29.5-30.8c12.2,0,25.3,6.5,26.7,21.3h-15.4c-0.5-5-5.5-8.1-11.7-8.1c-9.9,0-13.7,8.8-13.7,17.5
			c0,8.8,3.8,17.5,13.7,17.5c7.6,0,12.7-3.6,13.6-8.9h-10.8v-11.4h24.8V292.1z"/>
		<path class="st0" d="M237.8,231.8c18.6,0,29.1,13.6,29.1,30.8c0,17.1-10.5,30.8-29.1,30.8c-18.6,0-29.1-13.6-29.1-30.8
			C208.6,245.5,219.1,231.8,237.8,231.8z M237.8,280.2c9.9,0,13.7-8.8,13.7-17.5c0-8.8-3.8-17.5-13.7-17.5
			c-9.9,0-13.7,8.8-13.7,17.5C224,271.4,227.8,280.2,237.8,280.2z"/>
		<path class="st1" d="M319.3,273.5c0,13.2-6.8,19.9-20.7,19.9c-15.6,0-20.7-9-20.7-22.2v-2.6h14.5v5.5c0,3.9,2.2,6,6,6
			c3.6,0,5.5-2,5.5-7.7v-39.4h15.4V273.5z"/>
		<path class="st1" d="M386.7,267.7c0,17.1-7.9,25.6-25.7,25.6c-17.9,0-25.7-8.5-25.7-25.6v-34.7h15.4v35.6
			c0,7.6,2.8,11.5,10.3,11.5c7.5,0,10.3-3.9,10.3-11.5v-35.6h15.4V267.7z"/>
		<path class="st1" d="M457.2,292.1h-9.9l-0.9-6.5c-4.1,5.7-11,7.7-16.5,7.7c-17.9,0-29.5-13.6-29.5-30.8
			c0-17.1,11.6-30.8,29.5-30.8c12.2,0,25.3,6.5,26.7,21.3h-15.4c-0.5-5-5.5-8.1-11.7-8.1c-9.9,0-13.7,8.8-13.7,17.5
			c0,8.8,3.8,17.5,13.7,17.5c7.6,0,12.7-3.6,13.6-8.9h-10.8v-11.4h24.8V292.1z"/>
	</g>
	<g>
		<path class="st2" d="M55.2,311.7c0,2.7-0.6,5.3-5.1,5.3c-3.2,0-4.6-2.1-4.6-4.9v-0.8h2.7v0.8c0,1.7,0.5,2.8,2.1,2.8
			c1.7,0,2.2-1.1,2.2-3v-10.6h2.7V311.7z"/>
		<path class="st2" d="M77.6,301.3h2.9l5.9,15.4h-2.9l-1.4-4.1h-6.1l-1.4,4.1h-2.8L77.6,301.3z M76.7,310.5h4.7l-2.3-6.6H79
			L76.7,310.5z"/>
		<path class="st2" d="M99.8,301.3h2.8l3.9,12.2h0l3.9-12.2h2.7l-5.2,15.4h-3L99.8,301.3z"/>
		<path class="st2" d="M132.7,301.3h2.9l5.9,15.4h-2.9l-1.4-4.1H131l-1.4,4.1h-2.8L132.7,301.3z M131.7,310.5h4.7l-2.3-6.6h-0.1
			L131.7,310.5z"/>
		<path class="st2" d="M178.8,301.3h2.7v8.9c0,2.1,0.1,4.5,3.6,4.5c3.5,0,3.6-2.4,3.6-4.5v-8.9h2.7v9.8c0,3.9-2.5,5.9-6.3,5.9
			c-3.8,0-6.3-2-6.3-5.9V301.3z"/>
		<path class="st2" d="M211.4,311.5c0,2.4,1.7,3.3,3.9,3.3c2.4,0,3.2-1.2,3.2-2.3c0-1.2-0.6-1.7-1.3-1.9c-1.1-0.4-2.5-0.7-4.6-1.3
			c-2.6-0.7-3.4-2.3-3.4-3.9c0-3.1,2.8-4.5,5.6-4.5c3.2,0,5.9,1.7,5.9,4.9h-2.7c-0.1-2-1.5-2.7-3.3-2.7c-1.2,0-2.8,0.5-2.8,2
			c0,1.1,0.7,1.7,1.8,2c0.2,0.1,3.6,0.9,4.4,1.2c2,0.6,3,2.3,3,3.9c0,3.4-3.1,4.8-6.1,4.8c-3.5,0-6.3-1.7-6.4-5.5H211.4z"/>
		<path class="st2" d="M238.6,301.3h11.1v2.3h-8.4v4h7.7v2.2h-7.7v4.5h8.5v2.3h-11.2V301.3z"/>
		<path class="st2" d="M267.2,301.3h7.3c3.4,0,5.1,1.5,5.1,4.2c0,2.9-2,3.7-2.5,3.9v0c0.9,0.1,2.3,0.8,2.3,3.2c0,1.8,0.3,3.4,0.8,4
			h-2.9c-0.4-0.7-0.4-1.5-0.4-2.3c0-2.8-0.6-4.1-3.1-4.1h-4v6.3h-2.7V301.3z M269.9,308.3h4.4c1.7,0,2.6-0.8,2.6-2.5
			c0-2-1.3-2.3-2.7-2.3h-4.4V308.3z"/>
		<path class="st2" d="M331.8,316.6h-1.7l-0.4-1.8c-1.4,1.6-2.8,2.2-4.6,2.2c-4.6,0-7.4-3.7-7.4-8c0-4.4,2.8-8,7.4-8
			c3.4,0,6.2,1.8,6.6,5.2H329c-0.3-2-2-3.1-4-3.1c-3.3,0-4.7,2.9-4.7,5.9c0,2.9,1.4,5.9,4.7,5.9c2.8,0,4.3-1.6,4.3-4.2h-4.1v-2h6.5
			V316.6z"/>
		<path class="st2" d="M349.8,301.3h7.3c3.4,0,5.1,1.5,5.1,4.2c0,2.9-2,3.7-2.5,3.9v0c0.9,0.1,2.3,0.8,2.3,3.2c0,1.8,0.3,3.4,0.8,4
			h-2.9c-0.4-0.7-0.4-1.5-0.4-2.3c0-2.8-0.6-4.1-3.1-4.1h-4v6.3h-2.7V301.3z M352.5,308.3h4.4c1.7,0,2.6-0.8,2.6-2.5
			c0-2-1.3-2.3-2.7-2.3h-4.4V308.3z"/>
		<path class="st2" d="M393.9,309c0,4.4-2.8,8-7.4,8c-4.6,0-7.4-3.7-7.4-8c0-4.4,2.8-8,7.4-8C391.1,300.9,393.9,304.6,393.9,309z
			 M381.9,309c0,2.9,1.4,5.9,4.7,5.9c3.3,0,4.7-2.9,4.7-5.9c0-2.9-1.4-5.9-4.7-5.9C383.3,303.1,381.9,306,381.9,309z"/>
		<path class="st2" d="M411.2,301.3h2.7v8.9c0,2.1,0.1,4.5,3.6,4.5c3.5,0,3.6-2.4,3.6-4.5v-8.9h2.7v9.8c0,3.9-2.5,5.9-6.3,5.9
			s-6.3-2-6.3-5.9V301.3z"/>
		<path class="st2" d="M442,301.3h6.8c4.4,0,5.2,2.8,5.2,4.8c0,1.9-0.8,4.7-5.2,4.7h-4.1v5.9H442V301.3z M444.7,308.5h3.9
			c1.2,0,2.7-0.6,2.7-2.5c0-2-1.2-2.5-2.6-2.5h-4V308.5z"/>
	</g>
	<rect x="43.6" y="207.9" class="st3" width="413.6" height="11.6"/>
	<path class="st3" d="M192.1,148.6c3.7-9.7,6.4-18.7,10.5-27.1c3.1-6.6,7-7.2,12.8-2.8c4.8,3.6,9.6,4.4,15.5,3
		c3.7-0.8,7.7,0.2,11.6,0.3c4,0.2,8.2-0.2,12.1,0.6c3.2,0.7,7,2,8.9,4.3c5.1,6.1,10.6,7.3,18.3,6.2c4.6-0.7,9.7,1.7,14.4,3.2
		c10.6,3.3,21,7.6,31.9,10c4.1,0.9,9.2-1.8,13.7-3.4c4.2-1.5,8.1-3.6,12.2-5.5c2.8-1.3,5.9-2.4,8.3-4.3c5.3-4.3,11.2-5.3,17.7-4.3
		c6.6,1.1,13.2,2.1,19.9,2.9c5.4,0.7,9.6-1.2,11.9-6.6c1.8-4.4,4.2-5.3,7.8-1.4c1.1,1.1,4.1,2.2,4.8,1.5c4-3.3,5.3,0,7.4,2.3
		c2.1,2.3,4.6,4.1,6.9,6.2c4.6,4.3,9.2,8.7,13.7,13.1c-0.4,0.6-0.8,1.2-1.2,1.8C365.5,148.6,279.8,148.6,192.1,148.6z"/>
	<path class="st3" d="M42.8,147.5c5.2-4.3,9.9-9.9,15.9-12.5c10.7-4.7,22.1-8.3,33.5-10.9c5-1.2,10.8,0.6,16.1,1.8
		c5.1,1.2,9.4,1.2,14-2c3.1-2.2,7.2-2.9,10.7-4.7c5-2.5,10.1-4.9,14.6-8.1c3.2-2.2,5.7-2.6,8.3,0.2c1.6,1.7,3.1,3.6,4.3,5.6
		c6.4,10.5,12.7,21.1,19.1,31.8c-44.8,0-90.3,0-135.8,0C43.3,148.3,43,147.9,42.8,147.5z"/>
	<path class="st4" d="M192.1,151.1c3.7,9.7,6.4,18.7,10.5,27.1c3.1,6.6,7,7.2,12.8,2.8c4.8-3.6,9.6-4.4,15.5-3
		c3.7,0.8,7.7-0.2,11.6-0.3c4-0.2,8.2,0.2,12.1-0.6c3.2-0.7,7-2,8.9-4.3c5.1-6.1,10.6-7.3,18.3-6.2c4.6,0.7,9.7-1.7,14.4-3.2
		c10.6-3.3,21-7.6,31.9-10c4.1-0.9,9.2,1.8,13.7,3.4c4.2,1.5,8.1,3.6,12.2,5.5c2.8,1.3,5.9,2.4,8.3,4.3c5.3,4.3,11.2,5.3,17.7,4.3
		c6.6-1.1,13.2-2.1,19.9-2.9c5.4-0.7,9.6,1.2,11.9,6.6c1.8,4.4,4.2,5.3,7.8,1.4c1.1-1.1,4.1-2.2,4.8-1.5c4,3.3,5.3,0,7.4-2.3
		c2.1-2.3,4.6-4.1,6.9-6.2c4.6-4.3,9.2-8.7,13.7-13.1c-0.4-0.6-0.8-1.2-1.2-1.8C365.5,151.1,279.8,151.1,192.1,151.1z"/>
	<path class="st4" d="M42.8,152.3c5.2,4.3,9.9,9.9,15.9,12.5c10.7,4.7,22.1,8.3,33.5,10.9c5,1.2,10.8-0.6,16.1-1.8
		c5.1-1.2,9.4-1.2,14,2c3.1,2.2,7.2,2.9,10.7,4.7c5,2.5,10.1,4.9,14.6,8.1c3.2,2.2,5.7,2.6,8.3-0.2c1.6-1.7,3.1-3.6,4.3-5.6
		c6.4-10.5,12.7-21.1,19.1-31.8c-44.8,0-90.3,0-135.8,0C43.3,151.5,43,151.9,42.8,152.3z"/>
	<g>
		<path class="st5" d="M290.7,133.2c2.5-4.9,5.8-9.9,9.7-15c4.1,5.5,14.6,19.2,20.6,21.7c5.7,2.3,22.3-0.3,27.7-1.2
			c-0.7,9.2-0.8,16.9,0.2,21.4c4.6,20.6,6.5,41.6,4.3,45.4c-2.9-1.5-6.8-5.3-11-9.3c-7.6-7.4-16.2-15.7-25.1-16.4
			c-7.5-0.5-14.3,5.3-20.8,10.9c-5.4,4.6-12.8,17.4-16.9,16.5l-0.9-0.1C275,204,274.9,164.2,290.7,133.2z"/>
		<g>
			<g>
				<path class="st3" d="M274.1,210.1c1.6,2.1,3.4,2.5,4.6,2.5c6.6,1.3,14.7-12.1,21.2-17.7c5.7-4.9,11.6-10,16.8-9.6
					c6.9,0.5,14.7,8.1,21.7,14.8c4.7,4.6,8.8,8.5,12.5,10.3c0.7,0.4,1.5,0.6,2.2,0.6c1.2,0.1,2.3-0.2,3.3-1
					c7.5-5.9-0.5-43.7-2.1-51.2c-3.8-17.3,10.4-92.4,10.6-93.2l0-0.3c0.2-2.2-1-3.9-2.9-4.4c-7.6-2.1-31.3,18.4-36,22.5
					c-8.8,7.7-30.2,27.8-40.2,47.3C271,159.7,267.8,201.5,274.1,210.1z M290.7,133.2c2.5-4.9,5.8-9.9,9.7-15
					c4.1,5.5,14.6,19.2,20.6,21.7c5.7,2.3,22.3-0.3,27.7-1.2c-0.7,9.2-0.8,16.9,0.2,21.4c4.6,20.6,6.5,41.6,4.3,45.4
					c-2.9-1.5-6.8-5.3-11-9.3c-7.6-7.4-16.2-15.7-25.1-16.4c-7.5-0.5-14.3,5.3-20.8,10.9c-5.4,4.6-12.8,17.4-16.9,16.5l-0.9-0.1
					C275,204,274.9,164.2,290.7,133.2z"/>
				<g>
					
						<ellipse transform="matrix(0.5283 -0.849 0.849 0.5283 42.3938 336.4724)" class="st6" cx="324" cy="130.1" rx="13.7" ry="20.1"/>
					
						<ellipse transform="matrix(0.5283 -0.849 0.849 0.5283 48.9637 340.0818)" class="st5" cx="330.6" cy="126" rx="3.6" ry="6.1"/>
				</g>
			</g>
			<path class="st3" d="M351.3,126.4c0,0,0.1,0.8,0.4,2.1c0.8,3.9,3,12.2,6.3,16.1c4.5,5.2,7.4,8.6,7.1,13.4s-6.1,17.3-4.9,22.2
				c1.3,4.9,8.7,13.6,8.5,16.8c-0.3,3.6-6.9,6-8.4,4.2c-1.5-1.7-2.7-6.7-2.7-6.7l-3.5-18c0,0,5.9-14.1,6.1-17.3s-3.8-8.9-5.7-10.1
				c-3.1-1.8-4.3-6.8-4.3-6.8L351.3,126.4z"/>
			<path class="st3" d="M301.4,109.1c0,0-5.2,3.6-8.8,3.3c-3.2-0.2-7.8-3.8-7.6-7c0,0,0.7-14.4,4.5-17.4c1.3-1,3.3-1,4.9-1.3
				c2.7-0.4,7.3-3.9,10-4.1c2.4-0.2,7.3,3.3,9.5,2.3c1.7-0.7,2.5-4.6,2.1-6.3c-1.3-4.9-10.9-5.6-10.9-5.6s8.6-9.9,10.7-13.7
				c1.6-2.9,5.2-9.5,4.2-12.6c-0.7-2.2-3.9-4.2-6.2-3.7c-2.6,0.6-5.4,5.4-7,7.6c-1.2,1.6-5.3,7.4-5.3,7.4s3.7-9.5,4.1-12.4
				c0.4-2.8,1.2-9.3-0.8-11.4c-1.4-1.4-5.5-1.6-7-0.3c-1.7,1.5-2.6,10.8-4.7,14.3c-1.9,3.1-4.1,4.2-4.1,4.2s-2-10.5-3.9-13.2
				c-1-1.5-2.8-3.3-4.6-3.6c-1.3-0.2-4,0.4-4.9,1.3c-1.7,1.5-0.9,5.3-0.5,6.4c1.4,3.3,2.5,5.7,2.6,8.3c0.2,4-2.9,15.1-3,19.2
				c-0.1,2.4,0.2,4.3,1.1,6.5c1.1,2.6,4.8,7.4,5.7,10.1c1.5,4.6-1,17.3-0.3,22.1c0.6,3.6,5.7,7,6,10.6c0.2,4.1-2.6,18.9-2.6,18.9
				l-0.3,3.6L301.4,109.1z"/>
		</g>
	</g>
</g>
</svg>
